<svg width="25" height="25" viewBox="0 0 25 25" fill="none" xmlns="http://www.w3.org/2000/svg">
<path d="M24.3254 10.7954C24.3248 10.7948 24.3243 10.7942 24.3237 10.7936L14.1257 0.673523C13.691 0.241953 13.1131 0.00421143 12.4983 0.00421143C11.8836 0.00421143 11.3057 0.241764 10.8708 0.673334L0.678111 10.7883C0.674678 10.7918 0.671244 10.7954 0.667811 10.7988C-0.224828 11.6897 -0.223302 13.1353 0.672198 14.024C1.08132 14.4302 1.62168 14.6655 2.19941 14.6901C2.22287 14.6924 2.24652 14.6935 2.27037 14.6935H2.67682V22.1413C2.67682 23.6151 3.88513 24.8142 5.37057 24.8142H9.36036C9.76472 24.8142 10.0928 24.4888 10.0928 24.0873V18.2483C10.0928 17.5757 10.644 17.0287 11.3217 17.0287H13.675C14.3527 17.0287 14.9039 17.5757 14.9039 18.2483V24.0873C14.9039 24.4888 15.2318 24.8142 15.6363 24.8142H19.6261C21.1115 24.8142 22.3198 23.6151 22.3198 22.1413V14.6935H22.6967C23.3113 14.6935 23.8892 14.4559 24.3243 14.0244C25.2207 13.1342 25.2211 11.6861 24.3254 10.7954V10.7954Z" fill="#2D60FF"/>
</svg>
