<svg width="25" height="25" viewBox="0 0 25 25" fill="none" xmlns="http://www.w3.org/2000/svg">
<g clip-path="url(#clip0_78_355)">
<path d="M24.7853 1.32627L23.7496 0.298359C23.5336 0.0839854 23.2064 0.0252557 22.9287 0.150274L17.3655 2.58751C17.1465 2.68636 16.9907 2.88518 16.9478 3.11952C16.9052 3.35448 16.9806 3.59483 17.1505 3.76351L21.2937 7.87512C21.4636 8.0438 21.7058 8.11857 21.9426 8.07636C22.1787 8.03377 22.3791 7.87914 22.4787 7.66181L24.9345 2.14083C25.0605 1.86526 25.0013 1.54055 24.7853 1.32627Z" fill="#B1B1B1"/>
<path d="M4.73145 16.0883L0.642589 20.146C-0.214196 20.9963 -0.214196 22.3795 0.642589 23.2297L1.67833 24.2576C2.53512 25.1079 3.92891 25.1079 4.78565 24.2576L8.87451 20.1998L4.73145 16.0883ZM4.27496 21.6909C3.98868 21.975 3.52535 21.975 3.23912 21.6909C2.95294 21.4068 2.95294 20.947 3.23912 20.6631L5.25645 18.6611C5.54273 18.3769 6.00601 18.3769 6.29219 18.6611C6.57847 18.9452 6.57847 19.4049 6.29219 19.6889L4.27496 21.6909Z" fill="#B1B1B1"/>
<path d="M11.9818 17.1161L7.83874 13.0045C7.2677 12.4378 6.33821 12.4378 5.76721 13.0045C5.19617 13.5712 5.19617 14.4936 5.76721 15.0603L9.91032 19.1719C10.4813 19.7386 11.4108 19.7386 11.9818 19.1719C12.5529 18.6053 12.5529 17.6828 11.9818 17.1161Z" fill="#B1B1B1"/>
<path d="M19.2222 7.87504L17.1506 5.81921L11.464 11.4626C10.8919 10.8949 9.96455 10.8949 9.39243 11.4626L8.87451 11.9766L13.0176 16.0882L13.5355 15.5742C14.1076 15.0064 14.1076 14.0861 13.5355 13.5184L19.2222 7.87504Z" fill="#B1B1B1"/>
<path d="M23.7147 17.4502C22.5257 16.2702 21.0959 16.0165 19.4554 16.3074L16.1256 13.0033L15.3305 13.7924C15.5923 14.7688 15.3378 15.8408 14.5709 16.6018L14.054 17.1148L16.3456 19.3887C16.1145 20.6718 16.1362 21.7601 16.9392 22.9405C17.8659 24.3032 19.4877 25.0777 21.1868 24.8456C21.4677 24.8073 21.7023 24.6139 21.7926 24.3472C21.8829 24.0805 21.8133 23.7861 21.6128 23.5871L20.6056 22.5892V20.5336H22.679L23.6807 21.5277C23.8816 21.7271 24.1791 21.7957 24.4481 21.7054C24.7171 21.6151 24.9113 21.3811 24.9491 21.1017C25.128 19.7796 24.6921 18.4197 23.7147 17.4502Z" fill="#B1B1B1"/>
<path d="M8.64425 5.57564C8.93492 3.96459 8.69957 2.54732 7.49273 1.34879C6.67159 0.533941 5.57296 0.0853271 4.39923 0.0853271C4.20163 0.0853271 4.00612 0.0981198 3.81315 0.123463C3.53136 0.160581 3.29548 0.353536 3.20436 0.620776C3.11325 0.887918 3.18283 1.18331 3.38381 1.38276L4.39533 2.37661V4.4464H2.31364L1.30964 3.43607C1.1091 3.23706 0.812082 3.1682 0.543235 3.25799C0.274485 3.34778 0.0801008 3.58086 0.0414778 3.85973C-0.181666 5.47223 0.522385 7.11041 1.95886 8.07276C3.1528 8.87104 4.25602 8.89081 5.53932 8.66123L7.84015 10.9483L8.35719 10.4352C9.12408 9.67412 10.2042 9.42161 11.1881 9.68134L11.9829 8.89256L8.64425 5.57564Z" fill="#B1B1B1"/>
</g>
<defs>
<clipPath id="clip0_78_355">
<rect width="25" height="24.81" fill="white" transform="translate(0 0.0853271)"/>
</clipPath>
</defs>
</svg>
