<svg width="25" height="25" viewBox="0 0 25 25" fill="none" xmlns="http://www.w3.org/2000/svg">
<g clip-path="url(#clip0_78_414)">
<path d="M12.3219 11.9747C13.9763 11.9747 15.4089 11.3858 16.5794 10.224C17.75 9.06238 18.3434 7.64105 18.3434 5.99901C18.3434 4.35753 17.75 2.93601 16.5792 1.77399C15.4085 0.612545 13.9761 0.0236816 12.3219 0.0236816C10.6672 0.0236816 9.235 0.612545 8.06446 1.77418C6.89392 2.93582 6.30035 4.35735 6.30035 5.99901C6.30035 7.64105 6.89392 9.06257 8.06465 10.2242C9.23538 11.3857 10.6678 11.9747 12.3219 11.9747V11.9747Z" fill="#B1B1B1"/>
<path d="M22.8579 19.1012C22.8241 18.6178 22.7558 18.0905 22.6553 17.5336C22.5538 16.9725 22.4232 16.4422 22.2668 15.9574C22.1052 15.4564 21.8855 14.9616 21.6139 14.4874C21.332 13.9953 21.0009 13.5668 20.6293 13.2141C20.2408 12.8452 19.7651 12.5486 19.215 12.3322C18.6668 12.117 18.0593 12.008 17.4095 12.008C17.1543 12.008 16.9075 12.1119 16.4309 12.4199C16.1375 12.6097 15.7944 12.8293 15.4114 13.0722C15.0839 13.2792 14.6402 13.4733 14.0923 13.6489C13.5576 13.8206 13.0148 13.9077 12.479 13.9077C11.9432 13.9077 11.4006 13.8206 10.8654 13.6489C10.318 13.4734 9.87434 13.2794 9.54723 13.0723C9.16786 12.8318 8.82454 12.6122 8.5268 12.4197C8.05073 12.1117 7.80373 12.0078 7.54852 12.0078C6.8985 12.0078 6.2912 12.117 5.74322 12.3324C5.19352 12.5484 4.71764 12.845 4.32873 13.2143C3.95737 13.5671 3.62606 13.9955 3.34454 14.4874C3.07312 14.9616 2.85339 15.4562 2.69165 15.9576C2.53544 16.4424 2.40479 16.9725 2.30331 17.5336C2.2028 18.0897 2.13451 18.6172 2.10075 19.1018C2.06757 19.5765 2.05078 20.0692 2.05078 20.5669C2.05078 21.8619 2.46563 22.9104 3.28369 23.6836C4.09164 24.4466 5.16071 24.8337 6.46076 24.8337H18.4984C19.7985 24.8337 20.8672 24.4468 21.6753 23.6836C22.4936 22.911 22.9084 21.8623 22.9084 20.5667C22.9082 20.0668 22.8912 19.5737 22.8579 19.1012V19.1012Z" fill="#B1B1B1"/>
</g>
<defs>
<clipPath id="clip0_78_414">
<rect width="25" height="24.81" fill="white" transform="translate(0 0.0236816)"/>
</clipPath>
</defs>
</svg>
