<svg width="26" height="26" viewBox="0 0 26 26" fill="none" xmlns="http://www.w3.org/2000/svg">
<g clip-path="url(#clip0_78_376)">
<path d="M22.9608 7.16735V6.81438C22.9608 5.19181 21.6306 3.8717 19.9956 3.8717H2.96522C1.33016 3.87175 0 5.19181 0 6.81438V7.16735H22.9608Z" fill="#B1B1B1"/>
<path d="M13.5651 16.6331C13.5651 15.1067 14.0598 13.6559 14.9731 12.4602H0V16.565C0 18.1876 1.33016 19.5077 2.96522 19.5077H14.1911C13.7813 18.6169 13.5651 17.6416 13.5651 16.6331V16.6331ZM11.4804 15.7412H8.92125V14.2294H11.4804V15.7412ZM3.41545 14.2294H7.39781V15.7412H3.41545V14.2294Z" fill="#B1B1B1"/>
<path d="M16.5547 10.9485C17.7165 10.1418 19.0967 9.70718 20.5443 9.70718C21.3822 9.70718 22.1973 9.85318 22.9608 10.1322V8.67932H0V10.9485H16.5547Z" fill="#B1B1B1"/>
<path d="M26 16.6332C26 13.643 23.5573 11.219 20.5442 11.219C17.5311 11.219 15.0885 13.643 15.0885 16.6332C15.0885 19.6234 17.5311 22.0474 20.5442 22.0474C23.5573 22.0474 26 19.6234 26 16.6332ZM21.2796 19.5256V20.1409H20.5179V20.141V20.1409H19.7562V19.5302C19.2957 19.3754 18.9189 19.1031 18.5509 18.8361L19.4503 17.6158C19.9446 17.9746 20.1976 18.147 20.5442 18.147C20.7402 18.147 20.8989 18.0545 20.9585 17.9054C21.0305 17.725 20.9287 17.5588 20.6861 17.4608C20.6861 17.4608 19.5973 17.1004 19.0939 16.5911C18.6715 16.1638 18.5372 15.5616 18.6716 14.9888C18.807 14.412 19.1994 13.961 19.7562 13.7358V13.1254H21.2796V13.7105C21.6665 13.8171 21.994 13.9747 22.1823 14.0762L21.4555 15.4048C20.9736 15.1452 20.5303 15.0673 20.3577 15.1259C20.1903 15.1826 20.1648 15.291 20.1552 15.3318C20.1417 15.3896 20.1344 15.4783 20.2276 15.5813C20.3172 15.6804 21.2605 16.0606 21.2605 16.0606C22.2782 16.4717 22.7572 17.5043 22.3747 18.4624C22.176 18.9603 21.776 19.3374 21.2796 19.5256V19.5256Z" fill="#B1B1B1"/>
</g>
<defs>
<clipPath id="clip0_78_376">
<rect width="26" height="25.8024" fill="white" transform="translate(0 0.0583496)"/>
</clipPath>
</defs>
</svg>
