<svg width="25" height="26" viewBox="0 0 25 26" fill="none" xmlns="http://www.w3.org/2000/svg">
<g clip-path="url(#clip0_78_382)">
<path d="M3.92074 10.6942H1.1367C0.509043 10.6942 0 11.1994 0 11.8223V24.2273C0 24.8496 0.509043 25.3548 1.1367 25.3548H3.92074C4.5484 25.3548 5.05692 24.8496 5.05692 24.2273V11.8223C5.05692 11.1994 4.5484 10.6942 3.92074 10.6942Z" fill="#B1B1B1"/>
<path d="M10.5686 14.0768H7.78459C7.1564 14.0768 6.64789 14.582 6.64789 15.2048V24.2262C6.64789 24.8496 7.1564 25.3542 7.78459 25.3542H10.5686C11.1963 25.3542 11.7048 24.8491 11.7048 24.2262V15.2048C11.7048 14.582 11.1963 14.0768 10.5686 14.0768Z" fill="#B1B1B1"/>
<path d="M17.2154 14.0768H14.4314C13.8037 14.0768 13.2952 14.582 13.2952 15.2048V24.2262C13.2952 24.8496 13.8037 25.3542 14.4314 25.3542H17.2154C17.8436 25.3542 18.3521 24.8491 18.3521 24.2262V15.2048C18.3521 14.582 17.8436 14.0768 17.2154 14.0768Z" fill="#B1B1B1"/>
<path d="M23.8633 10.6942H21.0793C20.4516 10.6942 19.9431 11.1994 19.9431 11.8223V24.2273C19.9431 24.8501 20.4516 25.3548 21.0793 25.3548H23.8633C24.491 25.3548 25 24.8491 25 24.2273V11.8223C25 11.1994 24.491 10.6942 23.8633 10.6942Z" fill="#B1B1B1"/>
<path d="M12.8314 7.3385V9.3687C13.4505 9.32805 14.1032 9.03983 14.1032 8.36363C14.1032 7.66578 13.3877 7.4615 12.8314 7.3385Z" fill="#B1B1B1"/>
<path d="M11.0521 4.9087C11.0521 5.4218 11.4367 5.71846 12.2117 5.8726V4.03613C11.5074 4.05672 11.0521 4.4674 11.0521 4.9087Z" fill="#B1B1B1"/>
<path d="M12.5 0.5448C9.05372 0.5448 6.25 3.32774 6.25 6.74729C6.25 10.1658 9.05372 12.9487 12.5 12.9487C15.9463 12.9487 18.75 10.1658 18.75 6.74729C18.75 3.32774 15.9463 0.5448 12.5 0.5448ZM12.8314 10.4155V11.0505C12.8314 11.2252 12.6963 11.3994 12.5197 11.3994C12.3452 11.3994 12.2117 11.2252 12.2117 11.0505V10.4155C10.4654 10.3732 9.59681 9.33756 9.59681 8.52727C9.59681 8.11817 9.84628 7.88169 10.2367 7.88169C11.3941 7.88169 10.4941 9.29691 12.2117 9.36817V7.22501C10.6798 6.94894 9.75213 6.28224 9.75213 5.14415C9.75213 3.75004 10.9202 3.03107 12.2117 2.99096V2.44408C12.2117 2.26936 12.3452 2.09516 12.5197 2.09516C12.6963 2.09516 12.8314 2.26936 12.8314 2.44408V2.99096C13.6367 3.01207 15.2904 3.51355 15.2904 4.51915C15.2904 4.91874 14.9894 5.15417 14.6378 5.15417C13.9654 5.15417 13.975 4.05779 12.8314 4.03667V5.98504C14.1952 6.27273 15.4032 6.67233 15.4032 8.25173C15.4032 9.62525 14.3702 10.322 12.8314 10.4155Z" fill="#B1B1B1"/>
</g>
<defs>
<clipPath id="clip0_78_382">
<rect width="25" height="24.81" fill="white" transform="translate(0 0.5448)"/>
</clipPath>
</defs>
</svg>
