<svg width="25" height="26" viewBox="0 0 25 26" fill="none" xmlns="http://www.w3.org/2000/svg">
<g clip-path="url(#clip0_78_401)">
<path d="M14.4923 15.7848C18.6873 15.7848 22.1002 12.3708 22.1002 8.17454C22.1002 3.97825 18.6873 0.564209 14.4923 0.564209C10.2974 0.564209 6.88452 3.9782 6.88452 8.17449C6.88452 12.3708 10.2974 15.7848 14.4923 15.7848ZM12.0477 10.5493C12.269 10.2136 12.7227 10.1194 13.061 10.3391C13.5539 10.6591 13.7399 10.6885 14.3903 10.684C15.0252 10.6799 15.3936 10.2103 15.4672 9.77567C15.503 9.56428 15.5167 9.04809 14.872 8.82193C14.1159 8.55664 13.3421 8.25343 12.8037 7.83438C12.2654 7.41534 12.0188 6.69192 12.1604 5.94656C12.3139 5.13854 12.8818 4.49531 13.6427 4.26789C13.6496 4.26586 13.6563 4.26421 13.6632 4.26218V3.98682C13.6632 3.58564 13.9909 3.2604 14.3952 3.2604C14.7994 3.2604 15.1272 3.58564 15.1272 3.98682V4.21642C15.6243 4.33419 15.9715 4.55992 16.1125 4.66447C16.4363 4.90472 16.5026 5.3599 16.2605 5.68127C16.0185 6.00264 15.5598 6.0684 15.236 5.8281C15.086 5.71682 14.6714 5.47758 14.0649 5.65894C13.7106 5.76491 13.6187 6.11184 13.599 6.21563C13.5603 6.41956 13.6037 6.6107 13.7072 6.69119C14.0803 6.98166 14.7521 7.23886 15.3599 7.45209C16.4808 7.84528 17.1041 8.87583 16.9109 10.0165C16.8161 10.5762 16.5323 11.0954 16.1119 11.4787C15.8256 11.7399 15.4923 11.926 15.1272 12.0323V12.3622C15.1272 12.7633 14.7994 13.0886 14.3952 13.0886C13.9909 13.0886 13.6632 12.7633 13.6632 12.3622V12.1048C13.1899 12.0478 12.7926 11.9009 12.2595 11.5549C11.9213 11.3353 11.8264 10.885 12.0477 10.5493V10.5493Z" fill="#B1B1B1"/>
<path d="M2.77449 18.2257H1.10546C0.701209 18.2257 0.373474 18.551 0.373474 18.9521V24.6468C0.373474 25.048 0.701209 25.3732 1.10546 25.3732H2.77453V18.2257H2.77449Z" fill="#B1B1B1"/>
<path d="M24.4119 18.1749C23.0399 16.8134 20.8075 16.8133 19.4356 18.1749L17.2429 20.3509L16.3442 21.2428C15.981 21.6033 15.4883 21.8058 14.9746 21.8058H10.6045C10.2098 21.8058 9.87015 21.5048 9.85155 21.1135C9.83174 20.6958 10.1671 20.3509 10.5837 20.3509H15.0257C15.9188 20.3509 16.6935 19.7199 16.847 18.8468C16.8823 18.6463 16.9007 18.4402 16.9007 18.2298C16.9007 17.8279 16.5726 17.5018 16.1677 17.5018H13.7337C12.9383 17.5018 12.1744 17.1437 11.3657 16.7645C10.5174 16.3669 9.6403 15.9557 8.61469 15.8879C7.71767 15.8286 6.81859 15.9261 5.94231 16.1772C5.00405 16.4461 4.3296 17.2733 4.24781 18.2284C4.24469 18.2282 4.24151 18.2281 4.23834 18.2279V25.3707L16.8493 25.3741C17.7164 25.3741 18.5316 25.039 19.1449 24.4305L24.4117 19.2036C24.6981 18.9196 24.6981 18.459 24.4119 18.1749V18.1749Z" fill="#B1B1B1"/>
</g>
<defs>
<clipPath id="clip0_78_401">
<rect width="25" height="24.81" fill="white" transform="translate(0 0.564209)"/>
</clipPath>
</defs>
</svg>
