<svg width="25" height="26" viewBox="0 0 25 26" fill="none" xmlns="http://www.w3.org/2000/svg">
<g clip-path="url(#clip0_78_417)">
<path d="M4.81138 17.14C5.06278 17.2885 5.27862 17.4817 5.45087 17.7049H8.70604V14.5725L7.16253 13.6227C6.81876 13.4112 6.71286 12.9632 6.92598 12.6221C7.13914 12.281 7.59042 12.1759 7.93433 12.3873L9.43839 13.3127L10.7494 12.5061C8.13451 8.94776 8.73504 3.90575 12.2157 1.05995C6.48227 -0.846169 0.467845 3.391 0.440699 9.47647C0.42654 12.7037 2.15787 15.5724 4.81138 17.14V17.14Z" fill="#B1B1B1"/>
<path d="M5.90887 19.1584H12.8418V20.8058H5.90887V19.1584Z" fill="#B1B1B1"/>
<path d="M10.1707 14.5724V17.7049H13.29C13.4557 17.488 13.6623 17.3021 13.9027 17.1616C14.5684 16.7728 15.1795 16.2985 15.7211 15.7557C14.1912 15.4138 12.8173 14.6589 11.7248 13.6155C11.6831 13.6423 11.3829 13.8266 10.1707 14.5724Z" fill="#B1B1B1"/>
<path d="M17.5777 0.601196C13.7374 0.601196 10.5959 3.75046 10.5959 7.57834C10.5959 11.1789 13.3811 14.1605 16.9522 14.4786C21.085 14.8451 24.5595 11.5939 24.5595 7.57834C24.5595 3.75787 21.4275 0.601196 17.5777 0.601196V0.601196ZM18.311 10.7285V10.8804C18.311 11.2818 17.9831 11.6072 17.5787 11.6072C17.1742 11.6072 16.8463 11.2818 16.8463 10.8804V10.8107C16.5089 10.752 16.2006 10.6267 15.8112 10.3738C15.4727 10.1541 15.3778 9.70366 15.5992 9.36774C15.8207 9.03177 16.2746 8.93767 16.613 9.15736C16.97 9.38915 17.0857 9.40723 17.5737 9.40388C18.0449 9.40078 18.2326 9.03375 18.2693 8.81741C18.3022 8.62317 18.2652 8.36492 17.9022 8.23763C17.2942 8.0243 16.6707 7.77952 16.229 7.4357C15.2232 6.6528 15.5268 4.86467 16.8464 4.38882V4.28358C16.8464 3.8822 17.1743 3.55679 17.5787 3.55679C17.9832 3.55679 18.3111 3.8822 18.3111 4.28358V4.32389C18.6719 4.42496 18.9625 4.60777 19.1622 4.80924C19.4458 5.0954 19.4419 5.55555 19.1535 5.83701C18.8653 6.11833 18.402 6.11459 18.1184 5.82892C18.0775 5.78933 17.8519 5.60265 17.3635 5.74863C17.1685 5.80692 17.1161 6.00761 17.1047 6.06774C17.0808 6.19323 17.1148 6.27783 17.1329 6.29198C17.4092 6.50701 17.9236 6.70339 18.3904 6.86716C20.3206 7.54423 20.0855 10.0919 18.311 10.7285V10.7285Z" fill="#B1B1B1"/>
<path d="M7.08063 23.1315C7.08063 24.3872 8.11002 25.4088 9.37533 25.4088C10.6406 25.4088 11.67 24.3872 11.67 23.1315V22.2594H7.08063V23.1315Z" fill="#B1B1B1"/>
</g>
<defs>
<clipPath id="clip0_78_417">
<rect width="25" height="24.81" fill="white" transform="translate(0 0.598877)"/>
</clipPath>
</defs>
</svg>
