<svg width="25" height="25" viewBox="0 0 25 25" fill="none" xmlns="http://www.w3.org/2000/svg">
<g clip-path="url(#clip0_78_374)">
<path d="M22.6985 9.45481H22.1678C21.9954 8.91936 21.7778 8.39922 21.5172 7.89948L21.8931 7.52646C22.8045 6.62298 22.7801 5.17509 21.8934 4.29608L20.7845 3.19562C19.8993 2.31598 18.44 2.29049 17.5293 3.19528L17.1532 3.56859C16.6496 3.31003 16.1254 3.0941 15.5859 2.923V2.39623C15.5859 1.13688 14.5535 0.112305 13.2845 0.112305H11.7155C10.4465 0.112305 9.41406 1.13688 9.41406 2.39623V2.923C8.87456 3.09406 8.35039 3.30998 7.84683 3.56859L7.471 3.19562C6.56216 2.29263 5.10293 2.3138 4.21592 3.19533L3.10688 4.29584C2.22056 5.17446 2.19492 6.62245 3.10659 7.52622L3.48276 7.89953C3.22217 8.39927 3.00464 8.91936 2.83223 9.45486H2.30146C1.03247 9.45481 0 10.4794 0 11.7387V13.2958C0 14.5552 1.03247 15.5798 2.30146 15.5798H2.83223C3.00464 16.1152 3.22217 16.6354 3.48276 17.1351L3.10688 17.5081C2.19551 18.4116 2.21992 19.8595 3.10659 20.7385L4.21553 21.839C5.10073 22.7186 6.56001 22.7441 7.47065 21.8393L7.84683 21.466C8.35039 21.7245 8.87456 21.9405 9.41406 22.1116V22.6383C9.41406 23.8977 10.4465 24.9223 11.7155 24.9223H13.2845C14.5535 24.9223 15.586 23.8977 15.586 22.6383V22.1116C16.1255 21.9405 16.6497 21.7246 17.1532 21.466L17.5291 21.839C18.4379 22.742 19.8971 22.7208 20.7841 21.8392L21.8932 20.7387C22.7795 19.8601 22.8051 18.4121 21.8935 17.5083L21.5173 17.135C21.7779 16.6353 21.9954 16.1152 22.1678 15.5797H22.6986C23.9676 15.5797 25 14.5551 25 13.2957V11.7386C25 10.4794 23.9675 9.45481 22.6985 9.45481V9.45481ZM12.5 17.9154C9.50063 17.9154 7.06055 15.4938 7.06055 12.5173C7.06055 9.54077 9.50063 7.11918 12.5 7.11918C15.4994 7.11918 17.9395 9.54077 17.9395 12.5173C17.9395 15.4938 15.4994 17.9154 12.5 17.9154Z" fill="#B1B1B1"/>
</g>
<defs>
<clipPath id="clip0_78_374">
<rect width="25" height="24.81" fill="white" transform="translate(0 0.112305)"/>
</clipPath>
</defs>
</svg>
