<svg width="25" height="26" viewBox="0 0 25 26" fill="none" xmlns="http://www.w3.org/2000/svg">
<g clip-path="url(#clip0_78_393)">
<path d="M5.20831 23.2601C5.20897 23.8083 5.42867 24.3338 5.81923 24.7213C6.20979 25.1089 6.73931 25.327 7.29165 25.3276H17.7083C18.2606 25.327 18.7902 25.1089 19.1807 24.7213C19.5713 24.3338 19.791 23.8083 19.7916 23.2601V22.3556H5.20831V23.2601Z" fill="#B1B1B1"/>
<path d="M19.7916 2.5852C19.791 2.03706 19.5713 1.51156 19.1807 1.12397C18.7902 0.736384 18.2606 0.51835 17.7083 0.5177L7.29165 0.5177C6.73931 0.51835 6.20979 0.736384 5.81923 1.12397C5.42867 1.51156 5.20897 2.03706 5.20831 2.5852V3.61895H19.7916V2.5852Z" fill="#B1B1B1"/>
<path d="M24.7097 7.16723L21.5847 3.93677L20.0819 5.36851L21.3893 6.72014H19.7916V8.78763H21.5017L20.1126 10.1088L21.554 11.6015L24.679 8.62947C24.7778 8.53549 24.857 8.42311 24.912 8.29874C24.9671 8.17438 24.9968 8.04047 24.9997 7.90467C25.0026 7.76887 24.9784 7.63385 24.9287 7.50732C24.8789 7.38078 24.8045 7.26522 24.7097 7.16723Z" fill="#B1B1B1"/>
<path d="M16.6666 6.72021H19.7916V4.65271H5.20831V17.0577H8.33331V19.1252H5.20831V21.1927H19.7916V8.78771H16.6666V6.72021ZM15.625 10.8552H11.9791C11.841 10.8552 11.7085 10.9097 11.6109 11.0066C11.5132 11.1035 11.4583 11.235 11.4583 11.3721C11.4583 11.5092 11.5132 11.6406 11.6109 11.7376C11.7085 11.8345 11.841 11.889 11.9791 11.889H13.0208C13.6666 11.8883 14.2896 12.1258 14.7689 12.5554C15.2482 12.985 15.5495 13.5759 15.6144 14.2136C15.6793 14.8513 15.5032 15.4901 15.1201 16.0061C14.7371 16.5221 14.1745 16.8785 13.5416 17.006V18.0914H11.4583V17.0577H9.37498V14.9902H13.0208C13.1589 14.9902 13.2914 14.9357 13.3891 14.8388C13.4868 14.7419 13.5416 14.6104 13.5416 14.4733C13.5416 14.3362 13.4868 14.2048 13.3891 14.1078C13.2914 14.0109 13.1589 13.9564 13.0208 13.9564H11.9791C11.3333 13.9571 10.7103 13.7196 10.2311 13.29C9.75179 12.8604 9.45045 12.2695 9.38555 11.6318C9.32064 10.9942 9.4968 10.3553 9.87983 9.8393C10.2629 9.32329 10.8254 8.96693 11.4583 8.83939V7.75396H13.5416V8.78771H15.625V10.8552Z" fill="#B1B1B1"/>
<path d="M3.49827 17.0576L4.88734 15.7365L3.44593 14.2438L0.320931 17.2158C0.222115 17.3098 0.142929 17.4222 0.0879011 17.5465C0.0328728 17.6709 0.00308028 17.8048 0.000226477 17.9406C-0.00262733 18.0764 0.0215135 18.2114 0.0712692 18.338C0.121025 18.4645 0.19542 18.5801 0.290202 18.678L3.4152 21.9085L4.91807 20.4768L3.61064 19.1251H5.2083V17.0576H3.49827Z" fill="#B1B1B1"/>
</g>
<defs>
<clipPath id="clip0_78_393">
<rect width="25" height="24.81" fill="white" transform="translate(0 0.5177)"/>
</clipPath>
</defs>
</svg>
